{"title":"The.Man.From.Nowhere.2010.BRRip.XviD.AC3-BAUM","uid":6053393,"size":1653709993,"categoryP":"video","categoryS":"movies","magnet":"?xt=urn:btih:5df269a56939d1e8fffd0d4661224b1127d4dc26&amp;dn=The.Man.From.Nowhere.2010.BRRip.XviD.AC3-BAUM&amp;tr=udp%3A%2F%2Ftracker.openbittorrent.com%3A80&amp;tr=udp%3A%2F%2Fopen.demonii.com%3A1337&amp;tr=udp%3A%2F%2Ftracker.coppersurfer.tk%3A6969&amp;tr=udp%3A%2F%2Fexodus.desync.com%3A6969","seeders":6,"leechers":2,"uploader":".BONE.","files":3,"time":1292813517,"description":"Title: The Man From Nowhere (2010)\nYear: 2010\n\nFilm Genre: Action | Crime | Thriller\nSubtitles: English (.srt)\nDirector: Lee Jeong-beom\nCast: Won Bin, Kim Sae-ron, Kim Tae-hoon, Kim Hee-won, Kim Seong-oh, Lee Jong-pil\n &lt;a href=&quot;\nhttp://www.imdb.com/title/tt1527788/&quot; rel=&quot;nofollow&quot; target=&quot;_NEW&quot;&gt;\nhttp://www.imdb.com/title/tt1527788/&lt;/a&gt;\n\n\nGeneral\nGeneral\nComplete name : The.Man.From.Nowhere.2010.KOR.HDRip.XviD.AC3-BAUM.avi\nFormat : AVI\nFormat/Info : Audio Video Interleave\nFile size : 1.54 GiB\nDuration : 1h 59mn\nOverall bit rate : 1 849 Kbps\nWriting application : AVI-Mux GUI 1.17.8.3, Feb 16 201019:42:50\nWriting library : VirtualDub build 32706/release\n\nVideo #0\nID : 0\nFormat : MPEG-4 Visual\nFormat profile : Advanced Simple@L5\nFormat settings, BVOP : Yes\nFormat settings, QPel : No\nFormat settings, GMC : No warppoints\nFormat settings, Matrix : Default (H.263)\nCodec ID : XVID\nCodec ID/Hint : XviD\nDuration : 1h 59mn\nBit rate : 1 648 Kbps\nWidth : 720 pixels\nHeight : 304 pixels\nDisplay aspect ratio : 2.35:1\nFrame rate : 23.976 fps\nColor space : YUV\nChroma subsampling : 4:2:0\nBit depth : 8 bits\nScan type : Progressive\nBits/(Pixel*Frame) : 0.314\nStream size : 1.37 GiB (89%)\nWriting library : XviD 1.2.1 (UTC 2008-12-04)\n\nAudio #1\nID : 1\nFormat : AC-3\nFormat/Info : Audio Coding 3\nMode extension : CM (complete main)\nCodec ID : 2000\nDuration : 1h 59mn\nBit rate mode : Constant\nBit rate : 192 Kbps\nChannel(s) : 2 channels\nChannel positions : Front: L R\nSampling rate : 48.0 KHz\nBit depth : 16 bits\nVideo delay : 6ms\nStream size : 164 MiB (10%)\nAlignment : Split accross interleaves\nInterleave, duration : 42 ms (1.00 video frame)\nInterleave, preload duration : 500 ms\n\n","torrent":{"xt":"urn:btih:5df269a56939d1e8fffd0d4661224b1127d4dc26","amp;dn":"The.Man.From.Nowhere.2010.BRRip.XviD.AC3-BAUM","amp;tr":["udp%3A%2F%2Ftracker.openbittorrent.com%3A80","udp%3A%2F%2Fopen.demonii.com%3A1337","udp%3A%2F%2Ftracker.coppersurfer.tk%3A6969","udp%3A%2F%2Fexodus.desync.com%3A6969"],"infoHash":"5df269a56939d1e8fffd0d4661224b1127d4dc26","infoHashBuffer":{"type":"Buffer","data":[93,242,105,165,105,57,209,232,255,253,13,70,97,34,75,17,39,212,220,38]},"announce":[],"urlList":[]}}